<svg width="105" height="147" viewBox="0 0 105 147" fill="none" xmlns="http://www.w3.org/2000/svg">
<g id="Group 165">
<path id="Vector" fill-rule="evenodd" clip-rule="evenodd" d="M14.8988 71.8587L26.9723 68.2364L26.9434 62.9014L14.812 55.8535L14.8988 71.8587Z" fill="#FFE267" stroke="#A5E5F4" stroke-miterlimit="10" stroke-linecap="round" stroke-linejoin="round"/>
<path id="Vector_2" fill-rule="evenodd" clip-rule="evenodd" d="M34.1222 9.8658L47.6801 17.6173L77.1584 9.63249C83.1971 8.17703 89.9568 8.49606 95.3131 12.3795C95.3131 12.3795 78.5175 -2.11237 63.9562 1.87907L34.1222 9.8658Z" fill="#FFE267" stroke="#A5E5F4" stroke-miterlimit="10" stroke-linecap="round" stroke-linejoin="round"/>
<path id="Vector_3" fill-rule="evenodd" clip-rule="evenodd" d="M34.3719 121.193L27.2353 116.964L34.6947 115.145L34.6851 113.366C34.6716 110.877 34.3024 108.389 33.9333 105.901C33.9333 105.901 33.9333 105.901 33.9313 105.545C33.9275 104.834 33.568 104.125 33.5641 103.413C18.6471 107.407 16.517 108.13 1.59999 112.123L27.2874 126.567C32.9993 130.448 34.049 127.241 34.3719 121.193Z" fill="#FFE267" stroke="#A5E5F4" stroke-miterlimit="10" stroke-linecap="round" stroke-linejoin="round"/>
<path id="Vector_4" fill-rule="evenodd" clip-rule="evenodd" d="M77.1574 9.63213L47.3235 17.6189L47.3697 26.155L47.632 74.5262L59.7074 71.2596L59.4876 30.7131L76.8904 25.9949C88.2546 22.7322 91.4768 26.6272 91.5347 37.2974L91.7872 83.8903C91.8489 95.2717 82.988 101.011 77.6626 102.818L59.9041 107.538L59.906 107.894L59.9889 123.188L79.8795 118.1C94.0852 114.111 103.615 100.543 103.544 87.3833C103.44 68.1771 103.335 48.9709 103.231 29.7646C103.512 15.8915 92.0725 5.2831 77.1574 9.63213Z" fill="#FFE267" stroke="#A5E5F4" stroke-miterlimit="10" stroke-linecap="round" stroke-linejoin="round"/>
<path id="Vector_5" fill-rule="evenodd" clip-rule="evenodd" d="M91.7857 84.2458L91.5312 37.2972C91.4752 26.9828 88.2549 23.4434 77.9539 25.989L78.2355 77.917C77.9357 88.2334 74.0484 92.8783 63.3937 95.7816C61.6173 96.1469 60.1984 96.8659 58.422 97.2312C59.5064 100.426 59.8813 103.981 59.9045 108.249L77.6629 103.529C85.4723 100.641 91.1322 94.9198 91.7953 86.0242C91.7895 84.9572 91.7876 84.6015 91.7857 84.2458Z" fill="#FFE267" stroke="#A5E5F4" stroke-miterlimit="10" stroke-linecap="round" stroke-linejoin="round"/>
<path id="Vector_6" fill-rule="evenodd" clip-rule="evenodd" d="M34.6888 114.789L27.2313 116.964L34.7235 121.191C34.7139 119.413 34.7042 117.634 34.6946 115.856L34.6888 114.789Z" fill="#FFE267" stroke="#A5E5F4" stroke-miterlimit="10" stroke-linecap="round" stroke-linejoin="round"/>
<path id="Vector_7" fill-rule="evenodd" clip-rule="evenodd" d="M60.0136 127.1C60.0097 126.388 60.0059 125.677 60.002 124.965L59.9981 124.254L59.9133 108.605C59.4419 87.2663 45.5264 79.1611 45.5264 79.1611L26.9737 68.5912L14.8982 71.8578L33.451 82.4276C47.3626 89.8215 47.8243 109.382 47.8378 111.871L47.8398 112.227L47.9246 127.876C47.9265 128.232 47.9285 128.588 47.9304 128.943C47.5863 131.079 46.2195 141.402 36.9933 145.364L48.3535 141.39C50.128 140.669 58.9928 135.641 60.0136 127.1Z" fill="#FFE267" stroke="#A5E5F4" stroke-miterlimit="10" stroke-linecap="round" stroke-linejoin="round"/>
<path id="Vector_8" fill-rule="evenodd" clip-rule="evenodd" d="M34.2895 40.453L13.2393 28.474L1.16384 31.7406L34.3454 50.7675L34.2895 40.453Z" fill="#FFE267" stroke="#A5E5F4" stroke-miterlimit="10" stroke-linecap="round" stroke-linejoin="round"/>
<path id="Vector_9" fill-rule="evenodd" clip-rule="evenodd" d="M1.60169 112.479L27.2891 126.922C34.7813 131.15 34.389 124.394 34.6965 115.5L34.6849 113.366C34.2945 106.966 34.2482 98.4301 27.4712 94.91L1.42623 80.1126C1.33947 64.1074 1.25077 47.7465 1.164 31.7413L34.3455 50.7683L34.1238 9.86609L47.6817 17.6176L47.9902 74.525L14.8106 55.8537L14.8974 71.8589L33.4501 82.4288C45.5796 89.121 47.7849 102.269 47.8447 113.295L47.9218 127.522C47.9681 136.058 39.5091 150.331 28.093 143.991L1.69039 128.84L1.60941 113.901L1.60169 112.479Z" fill="#FFE267" stroke="#A5E5F4" stroke-miterlimit="10" stroke-linecap="round" stroke-linejoin="round"/>
</g>
</svg>
