<svg aria-hidden="true" style="position: absolute; width: 0; height: 0; overflow: hidden;" version="1.1" xmlns="http://www.w3.org/2000/svg" xmlns:xlink="http://www.w3.org/1999/xlink">
<defs>
<symbol id="icon-arrow" viewBox="0 0 32 32">
<path d="M31.27 16.77c-0 0-0.001 0.001-0.001 0.001l-6.381 6.35c-0.478 0.476-1.251 0.474-1.727-0.004s-0.474-1.251 0.004-1.727l4.284-4.263h-25.861c-0.674 0-1.221-0.547-1.221-1.221s0.547-1.221 1.221-1.221h25.861l-4.284-4.263c-0.478-0.476-0.48-1.249-0.004-1.727s1.249-0.48 1.727-0.004l6.381 6.35c0 0 0.001 0.001 0.001 0.001 0.478 0.477 0.477 1.253-0 1.729z" fill="#3E3E3F"></path>
</symbol>
<symbol id="icon-logo" viewBox="0 0 23 32">
<path d="M3.243 15.643l2.628-0.789-0.006-1.161-2.641-1.534 0.019 3.484z"></path>
<path d="M7.428 2.148l2.951 1.687 6.417-1.738c1.315-0.317 2.786-0.247 3.952 0.598 0 0-3.656-3.155-6.826-2.286l-6.494 1.739z"></path>
<path d="M7.482 26.382l-1.554-0.921 1.624-0.396-0.002-0.387c-0.003-0.542-0.083-1.083-0.164-1.625 0 0 0 0-0-0.078-0.001-0.155-0.079-0.309-0.080-0.464-3.247 0.869-3.711 1.027-6.958 1.896l5.592 3.144c1.243 0.845 1.472 0.147 1.542-1.17z"></path>
<path d="M16.796 2.097l-6.494 1.739 0.010 1.858 0.057 10.53 2.629-0.711-0.048-8.826 3.788-1.027c2.474-0.71 3.175 0.138 3.188 2.46l0.055 10.143c0.013 2.478-1.915 3.727-3.075 4.12l-3.866 1.027 0 0.078 0.018 3.329 4.33-1.108c3.092-0.868 5.167-3.822 5.151-6.687-0.023-4.181-0.046-8.362-0.068-12.543 0.061-3.020-2.429-5.329-5.676-4.383z"></path>
<path d="M19.981 18.339l-0.055-10.22c-0.012-2.245-0.713-3.016-2.956-2.462l0.061 11.304c-0.065 2.246-0.911 3.257-3.231 3.889-0.387 0.080-0.696 0.236-1.082 0.316 0.236 0.695 0.318 1.469 0.323 2.398l3.866-1.027c1.7-0.629 2.932-1.874 3.076-3.811-0.001-0.232-0.002-0.31-0.002-0.387z"></path>
<path d="M7.551 24.988l-1.623 0.473 1.631 0.92c-0.002-0.387-0.004-0.774-0.006-1.161l-0.001-0.232z"></path>
<path d="M13.064 27.668c-0.001-0.155-0.002-0.31-0.003-0.465l-0.001-0.155-0.018-3.407c-0.103-4.645-3.132-6.41-3.132-6.41l-4.039-2.301-2.629 0.711 4.039 2.301c3.028 1.61 3.129 5.868 3.132 6.409l0 0.078 0.018 3.407c0 0.078 0.001 0.155 0.001 0.232-0.075 0.465-0.372 2.712-2.381 3.575l2.473-0.865c0.386-0.157 2.316-1.251 2.538-3.111z"></path>
<path d="M7.464 8.806l-4.582-2.608-2.629 0.711 7.223 4.142-0.012-2.245z"></path>
<path d="M0.349 24.485l5.592 3.144c1.631 0.92 1.546-0.55 1.612-2.486l-0.003-0.465c-0.085-1.393-0.095-3.251-1.57-4.018l-5.67-3.221c-0.019-3.484-0.038-7.046-0.057-10.53l7.223 4.142-0.048-8.904 2.951 1.687 0.067 12.388-7.223-4.064 0.019 3.484 4.039 2.301c2.64 1.457 3.12 4.319 3.134 6.719l0.017 3.097c0.010 1.858-1.831 4.965-4.316 3.585l-5.747-3.298-0.018-3.252-0.002-0.31z"></path>
</symbol>
</defs>
</svg>
